<svg width="603" height="495" fill="none" xmlns="http://www.w3.org/2000/svg"><ellipse rx="233.5" ry="219" transform="matrix(-1 0 0 1 286.5 247.999)" fill="#FFE5D2"/><path fill-rule="evenodd" clip-rule="evenodd" d="M480.408 343.693c.1-.059.727.771 1.653 2.405.93 1.628 2.087 4.102 3.163 7.293 2.204 6.361 3.588 15.751 2.768 25.991-.814 10.239-3.173 19.227-4.993 25.624-1.862 6.401-3.232 10.286-3.468 10.22-.261-.072.664-4.092 2.192-10.555 1.488-6.462 3.612-15.402 4.408-25.431.8-10.026-.338-19.152-2.167-25.461-1.777-6.34-3.849-9.933-3.556-10.086zM486.696 292.449c.117-.052.874 1.34 2.139 3.905a361.604 361.604 0 015.138 10.971c4.165 9.331 9.771 22.394 13.837 37.558 1.999 7.586 3.362 14.961 4.052 21.733.695 6.771.766 12.923.418 18.058-.337 5.137-.983 9.259-1.605 12.062-.616 2.808-1.103 4.321-1.213 4.296-.345-.067 1.177-6.249 1.501-16.42.402-10.15-.927-24.252-4.956-39.246-4.02-15-9.397-28.069-13.246-37.516-1.938-4.727-3.505-8.554-4.59-11.198-1.06-2.656-1.593-4.15-1.475-4.203zM253.991 352.594c.216.233-1.9 2.258-4.646 6.018-.682.944-1.422 1.977-2.115 3.157-.757 1.136-1.416 2.44-2.15 3.787-1.363 2.744-2.657 5.863-3.656 9.259-.954 3.408-1.511 6.739-1.811 9.792-.091 1.53-.224 2.987-.186 4.352-.038 1.369.04 2.641.116 3.804.333 4.648 1.053 7.492.746 7.575-.186.064-1.37-2.683-2.057-7.44-.165-1.188-.322-2.493-.352-3.906-.106-1.412-.03-2.922.017-4.512.215-3.17.742-6.646 1.735-10.183a50.243 50.243 0 013.93-9.549c.801-1.374 1.536-2.693 2.375-3.831.773-1.181 1.6-2.203 2.369-3.122 3.103-3.661 5.563-5.353 5.685-5.201zM258.957 369c.157.251-1.022 1.156-2.562 2.886-.78.855-1.602 1.963-2.41 3.246a25.271 25.271 0 00-2.098 4.455 25.076 25.076 0 00-1.084 4.806c-.153 1.51-.187 2.889-.098 4.045.15 2.314.523 3.757.245 3.858-.2.085-1.039-1.236-1.552-3.682-.268-1.219-.378-2.713-.309-4.367a20.973 20.973 0 011.034-5.271 20.952 20.952 0 012.425-4.789c.961-1.347 1.966-2.453 2.924-3.248 1.907-1.61 3.379-2.131 3.485-1.939zM190.015 216.107c.096-.085.931.74 2.364 2.312a35.996 35.996 0 012.498 2.967c.919 1.197 2.025 2.527 3.062 4.126l1.682 2.476c.578.866 1.102 1.815 1.686 2.773 1.195 1.902 2.267 4.049 3.432 6.29 2.2 4.544 4.304 9.702 5.98 15.292 1.622 5.608 2.651 11.086 3.266 16.099.235 2.516.499 4.904.526 7.151.028 1.123.102 2.205.085 3.248l-.069 2.994c-.005 1.91-.213 3.627-.335 5.136-.11 1.51-.3 2.8-.491 3.849-.35 2.103-.604 3.25-.732 3.232-.328-.043.291-4.702.239-12.231l-.051-2.952c-.022-1.026-.131-2.092-.192-3.194-.092-2.209-.41-4.552-.685-7.019-.7-4.915-1.759-10.277-3.351-15.781-1.646-5.487-3.66-10.567-5.737-15.075-1.104-2.221-2.107-4.36-3.225-6.265-.547-.96-1.034-1.912-1.57-2.786-.542-.87-1.061-1.707-1.556-2.505-4.035-6.349-7.08-9.92-6.826-10.137zM211.144 224.878c.159-.141 2.302 1.87 5.028 5.746 1.372 1.93 2.817 4.362 4.224 7.167a64.18 64.18 0 013.71 9.504 64.34 64.34 0 012.033 10.003c.337 3.122.442 5.951.334 8.319-.189 4.739-.899 7.597-1.108 7.564-.3-.037-.06-2.93-.212-7.565-.061-2.317-.299-5.068-.718-8.093a77.742 77.742 0 00-2.118-9.697 77.419 77.419 0 00-3.474-9.294c-1.286-2.77-2.576-5.208-3.779-7.188-2.384-3.974-4.151-6.271-3.92-6.466z" fill="#fff"/><path fill-rule="evenodd" clip-rule="evenodd" d="M137.156 378.076l-1.624-3.328-45.22 34.666 19.728 32.065 45.013-38.079-17.897-25.324z" fill="#FF7B5B"/><path fill-rule="evenodd" clip-rule="evenodd" d="M92.207 410.155l17.331 30.071 1.108-.496-15.433-28.117-3.006-1.458z" fill="#D7D4D4"/><path fill-rule="evenodd" clip-rule="evenodd" d="M136.263 377.417l-44.056 32.737s.185.703 1.278 1.137c1.095.433 1.728.323 1.728.323l46.316-31.806s-2.67-.622-3.638-1.347c-.97-.728-1.628-1.044-1.628-1.044z" fill="#F5F3F3"/><path fill-rule="evenodd" clip-rule="evenodd" d="M142.662 378.526l-48.277 32.353 15.68 29.814 2.526 4.129 48.278-35.85s-5.085-7.614-8.138-12.212c-3.053-4.597-9.046-15.44-9.372-16.135-.328-.695-.697-2.099-.697-2.099z" fill="#FF7B5B"/><path fill-rule="evenodd" clip-rule="evenodd" d="M540.786 155.165l1.364-2.794 37.972 29.11-16.566 26.927-37.799-31.977 15.029-21.266z" fill="#775298"/><path fill-rule="evenodd" clip-rule="evenodd" d="M578.531 182.103l-14.552 25.251-.932-.416 12.961-23.61 2.523-1.225z" fill="#D7D4D4"/><path fill-rule="evenodd" clip-rule="evenodd" d="M541.537 154.611l36.995 27.491s-.157.59-1.073.954c-.92.364-1.452.271-1.452.271l-38.894-26.707s2.243-.522 3.056-1.133c.814-.61 1.368-.876 1.368-.876z" fill="#F5F3F3"/><path fill-rule="evenodd" clip-rule="evenodd" d="M536.163 155.543l40.539 27.167-13.165 25.037-2.122 3.467-40.542-30.105s4.271-6.395 6.834-10.255c2.566-3.86 7.597-12.966 7.87-13.549.275-.582.586-1.762.586-1.762z" fill="#775298"/><path fill-rule="evenodd" clip-rule="evenodd" d="M83.17 102.772s-2.868 1.991-1.435 5.31c1.434 3.319 7.72 13.166 16.21 12.833.348-.012-10.696-18.143-10.696-18.143h-4.08z" fill="#FF7B5B"/><path fill-rule="evenodd" clip-rule="evenodd" d="M70.18 284.293s-10.617-9.516-14.017-7.812c-4.153 2.084-27.924 25.452-26.995 36.46.382 4.509 5.613.646 14.935-9.056 9.325-9.7 21.066-5.543 21.066-5.543l5.011-14.049zM95.977 300.343l-12.818-7.715s-33.225 31.252-28.034 35.419c3.937 3.16 6.252.325 15.575-9.377 9.322-9.699 21.133-4.122 21.133-4.122l4.144-14.205z" fill="#775298"/><path fill-rule="evenodd" clip-rule="evenodd" d="M174.276 197.525l2.404 34.246-53.358-13.947 50.954-20.299z" fill="#F3A683"/><path fill-rule="evenodd" clip-rule="evenodd" d="M123.322 219.002s46.673 2.952 52.888.871c0 0 9.121 89.903-7.109 99.602-16.23 9.702-52.652-4.503-52.652-4.503l9.834-19.402 21.203-1.385V259.54l-1.521.346-22.643-40.884z" fill="#112129"/><path fill-rule="evenodd" clip-rule="evenodd" d="M64.817 280.326s-11.74 4.851-7.941 16.631c0 0 40.074 31.528 59.573 24.251 10.925-4.075 22.66-35.173 30.87-61.742l28.891-39.593s-13.626.684-18.171.666c-8.688-.032-34.716-1.537-34.716-1.537s-13.596 71.373-18.441 73.104c-4.844 1.731-40.065-11.78-40.065-11.78z" fill="#22343D"/><path fill-rule="evenodd" clip-rule="evenodd" d="M134.198 129.486s27.972-26.331 32.806-33.262c4.833-6.929 15.195-30.141 27.968-39.842l-6.214-13.166s3.8-2.078 6.214 3.464c0 0 8.978-18.014 11.05-17.67 2.074.347-4.142 13.86-4.142 13.86s8.635-12.473 11.051-12.126c2.414.346-6.216 14.022-6.216 14.022s9.667-11.25 11.049-9.865c1.381 1.386-7.597 9.865-7.597 9.865s9.668-5.57 10.705-3.734c1.036 1.838-9.669 6.688-9.669 6.688s-1.036 7.968-7.596 11.432c0 0-12.99 35.214-24.731 46.646l-37.716 39.329-6.962-15.641zM100.809 143.133s-26.504 27.817-33.455 32.601c-6.952 4.783-30.182 14.963-39.969 27.69l-13.063-6.359s-2.107 3.791 3.395 6.267c0 0-18.04 8.839-17.713 10.923.325 2.082 13.85-4.028 13.85-4.028S1.342 218.773 1.665 221.2c.324 2.427 14.032-6.106 14.032-6.106s-11.302 9.594-9.933 10.992c1.366 1.4 9.902-7.527 9.902-7.527s-5.641 9.648-3.819 10.704c1.82 1.056 6.754-9.638 6.754-9.638s7.95-.962 11.466-7.514c0 0 33.243-13.27 44.749-24.943l41.368-29.41-15.375-14.625z" fill="#FFC6B2"/><path fill-rule="evenodd" clip-rule="evenodd" d="M110.745 132.046L97.34 145.212l3.399 14.842s13.207 31.811 15.203 39.571c3.103 12.068-1.916 30.467-1.916 30.467s22.388-1.865 42.76-2.557c20.37-.694 27.034-7.278 27.034-7.278s-17.662-59.022-29.856-75.52c-12.196-16.496-16.632-21.661-16.632-21.661l-17.955 3.938-8.632 5.032z" fill="#fff"/><path fill-rule="evenodd" clip-rule="evenodd" d="M150.085 142.791l13.966-8.954s2.134-9.593-14.709-20.908l-19.751 12.418 20.494 17.444zM100.165 144.171c-7.657 1.078-21.65 20.549-23.21 20.512 0 0 9.847 16.124 17.648 16.647 0 0 34.329-41.207 5.562-37.159z" fill="#fff"/><path fill-rule="evenodd" clip-rule="evenodd" d="M127.194 131.502s-11.13-8.343-10.744-11.669c.098-.838 1.64-2.198 2.041-3.406 2.158-6.495-8.246-23.233-14.639-26.76-5.03-2.775-2.825-3.02-13.409 3.29-10.583 6.31-4.553 17.223.173 22.867 4.468 5.334 9.585 7.62 14.189 8.005l6.546 14.589 15.843-6.916z" fill="#FFC6B2"/><path fill-rule="evenodd" clip-rule="evenodd" d="M107.111 143.084c-2.105-5.181 1.881-11.706 8.904-14.58 7.025-2.875 14.423-1.006 16.532 4.172 2.104 5.18-4.964 12.966-8.909 14.58-3.945 1.615-14.423 1.006-16.527-4.172zM90.616 115.824s-3.61-.2-4.01 2.213c-.402 2.414 6.617 2.414 9.224.603l-5.214-2.816z" fill="#FFC6B2"/><path fill-rule="evenodd" clip-rule="evenodd" d="M92.421 118.037c-.685-4.362-5.318-7.605-5.087-11.855 2.22.018 3.646-2.742 2.636-5.1-.398-.927-1.072-1.72-1.502-2.634-.43-.913-.543-2.11.115-2.626.313-.244.735-.286 1.14-.327 3.292-.34 8.932.651 11.962-.476 2.885-1.072 5.976-3.158 5.676-6.704-.263-3.088-2.98-5.59-5.476-7.482-1.43-1.085-5.517-3.92-7.058-3.663-2.354.392-2.924 3.543-3.094 6.18-1.646-1.573-4.075-1.32-5.506-.041-1.431 1.28-2.11 3.312-2.732 5.275-.625 1.963-1.287 4.001-2.699 5.306-1.316 1.215-3.398 2.135-3.125 4.202.325 2.464 3.532 3.34 5.015 5.441-.365-.515-.675 2.774-.464 3.332.633 1.68 2.212 2.792 3.355 4.077 2.432 2.739 3.622 5.496 6.844 7.095z" fill="#FF7B5B"/><path fill-rule="evenodd" clip-rule="evenodd" d="M112.587 108.063l-8.224 4.268s9.879 7.195 8.224-4.268z" fill="#fff"/><path fill-rule="evenodd" clip-rule="evenodd" d="M101.272 109.755c.45.856-.216 2.093-1.486 2.764-1.27.67-2.663.52-3.112-.336-.449-.855.216-2.091 1.485-2.763 1.272-.67 2.664-.521 3.113.335zM113.282 101.524c.449.856-.216 2.093-1.486 2.764-1.27.67-2.663.52-3.113-.336-.448-.855.216-2.093 1.486-2.763 1.271-.67 2.663-.521 3.113.335z" fill="#FFB2A0"/><path fill-rule="evenodd" clip-rule="evenodd" d="M106.846 107.761c-.038-.048.115-.251.471-.509.34-.263.931-.546 1.369-1.02.435-.46.591-1.417-.075-1.552-.691-.236-1.476.56-2.376 1.316l-.662.55c-.203.188-.632.464-1.078.408-.849-.138-1.21-.706-1.536-1.086a7.536 7.536 0 01-1.277-2.479c-.441-1.537-.243-2.529-.137-2.521.148-.006.197.947.758 2.299a8.286 8.286 0 001.32 2.156c.3.365.678.706.947.717.112.005.201-.033.413-.212l.653-.55c.453-.368.846-.74 1.365-1.086.504-.341 1.222-.556 1.866-.337.687.181 1.09.985.971 1.544-.078.57-.36.989-.681 1.296-.677.568-1.283.706-1.665.878-.391.148-.605.241-.646.188z" fill="#FF7B5B"/><path fill-rule="evenodd" clip-rule="evenodd" d="M104.805 123.829s5.247.03 8.093-1.729c0 0-2.408 2.968-7.226 3.736l-.867-2.007z" fill="#FFA192"/><path fill-rule="evenodd" clip-rule="evenodd" d="M107.081 100.223c-.048.261-.781.341-1.557.684-.786.319-1.354.792-1.572.645-.224-.119.146-1.059 1.208-1.507 1.061-.451 1.99-.067 1.921.178zM96.8 106.99c-.199-.147.112-.995.867-1.844.765-.866 1.741-1.155 1.844-.913.11.236-.486.785-1.155 1.547-.68.759-1.342 1.371-1.557 1.21z" fill="#22343D"/><path fill-rule="evenodd" clip-rule="evenodd" d="M92.814 105.682c-.425-.316-.757-1.669.87-3.492 1.642-1.865 3.477-1.536 3.697-1.018.237.508-.375 1.231-1.816 2.871-1.462 1.634-2.29 1.985-2.751 1.639zM101.451 98.5c-.235-.441.024-1.726 2.14-2.622 2.146-.925 3.576.096 3.555.626-.004.527-.812.896-2.697 1.711-1.898.8-2.744.766-2.998.285z" fill="#FF7B5B"/><path fill-rule="evenodd" clip-rule="evenodd" d="M552.766 111.282c.139.138-2.14 2.71-6.869 5.512-4.671 2.799-12.019 5.573-20.472 5.636-8.453.063-15.843-2.603-20.554-5.332-4.768-2.731-7.085-5.271-6.949-5.411.197-.25 2.788 1.893 7.563 4.238 4.729 2.354 11.856 4.691 19.925 4.633 8.071-.062 15.162-2.504 19.857-4.928 4.738-2.416 7.3-4.596 7.499-4.348zM501.198 107.396c-.129.285-2.652-.766-6.903-1.717-2.119-.501-4.69-.888-7.553-1.245-2.874-.319-6.05-.573-9.405-.813-3.356-.235-6.567-.506-9.485-.869-2.917-.388-5.538-.85-7.697-1.436-4.336-1.135-6.791-2.479-6.705-2.668.112-.286 2.694.598 6.987 1.373 2.142.411 4.726.728 7.604 1.016 2.885.264 6.071.481 9.431.718 3.362.239 6.58.549 9.494.968 2.913.46 5.526.994 7.664 1.675 4.293 1.315 6.664 2.819 6.568 2.998z" fill="#775298"/><mask id="a" maskUnits="userSpaceOnUse" x="433" y="35" width="170" height="84"><path fill-rule="evenodd" clip-rule="evenodd" d="M433.032 35.205h169.324v83.236H433.032V35.205z" fill="#fff"/></mask><g mask="url(#a)"><path fill-rule="evenodd" clip-rule="evenodd" d="M450.063 52.065c8.059-1.716 16.409-.239 24.535 1.12 8.126 1.358 16.563 2.583 24.508.395 14.344-3.95 25.234-18.491 40.109-18.374 6.125.048 11.898 2.672 17.866 4.06 7.41 1.726 15.129 1.54 22.635 2.771 7.508 1.23 15.263 4.26 19.506 10.595 5.033 7.517 3.653 18.121-1.629 25.466-5.281 7.346-13.74 11.818-22.406 14.353-6.045 1.767-12.485 2.789-17.716 6.306-5.292 3.558-8.747 9.283-13.676 13.329-12.371 10.15-31.624 7.241-44.402-2.387-3.211-2.419-6.187-5.226-9.794-6.996-14.671-7.206-35.772 2.333-48.408-10.777-12.832-13.314-11.004-35.632 8.872-39.861z" fill="#775298"/></g><path fill-rule="evenodd" clip-rule="evenodd" d="M446.037 309.916s13.442 28.908 15.015 23.556c1.568-5.355 1.05-18.212.208-20.047-.846-1.836-6.341-9.945-6.341-9.945l-8.882 6.436z" fill="#FFB2A0"/><path fill-rule="evenodd" clip-rule="evenodd" d="M543.238 76.151c1.244 1.599.413-.118 1.822 2.187 5.853-.204 9.782-5.174 9.782-5.174s9.291.247 9.184-1.418c-.106-1.668-8.907-1.045-8.907-1.045s9.31-2.934 8.799-4.4c-.508-1.463-11.256 3.206-11.256 3.206s10.846-6.755 9.243-7.838c-1.601-1.08-12.036 4.816-12.036 4.816s9.069-7.474 7.71-8.438c-1.357-.963-13.937 8.765-13.937 8.765.183-4.786-3.238-4.618-3.238-4.618l.141 11.684s2.12 1.537 2.693 2.273zM405.522 23.267c-1.989.368-.447-.326-3.028.465-4.238-4.056-3.676-10.429-3.676-10.429s-7.108-6.003-5.93-7.177c1.186-1.176 7.353 5.152 7.353 5.152s-5.018-8.396-3.668-9.151c1.349-.755 6.299 9.896 6.299 9.896S399.229-.254 401.144.004c1.913.258 5.816 11.617 5.816 11.617S405.124-.01 406.774.175c1.653.182 4.625 15.838 4.625 15.838 3.029-3.701 5.475-1.296 5.475-1.296l-7.677 8.471s-2.761-.09-3.675.078zM453.744 72.075c-2.571-.424-8.787 3.721-11.897 10.477-1.741 3.782-2.939 7.623-.941 13.773.941 2.892 2.911 3.255 3.351 4.551.555 1.64-1.285 6.812-1.285 6.812l7.338 2.973c.476-3.553 1.017-7.127 4.625-8.669 1.35-.578 2.795-.943 4.069-1.676 3.438-1.977 5.274-6.303 6.686-9.844 1.054-2.645-5.5-17.337-11.946-18.397z" fill="#FFC6B2"/><path fill-rule="evenodd" clip-rule="evenodd" d="M445.009 172.479l-12.293-4.95s-36.484 67.883-36.332 86.717c.151 18.833 50.109 56.542 50.109 56.542l8.425-7.307s-15.424-26.984-23.669-36.498c-8.246-9.517 13.76-94.504 13.76-94.504z" fill="#FFB2A0"/><path fill-rule="evenodd" clip-rule="evenodd" d="M506.049 249.807s27.095-12.899 21.651-14.038c-5.445-1.134-18.178.429-19.932 1.421-1.756.994-9.364 7.146-9.364 7.146l7.645 5.471z" fill="#FFC6B2"/><path fill-rule="evenodd" clip-rule="evenodd" d="M457.085 171.89l-18.649 6.807s-18.655 82.325-11.533 95.25c7.119 12.93 27.12 4.374 55.605-11.224l23.859-13.068-7.964-5.318s-27.764 5.459-35.561 10.901c0 0 4.069-11.567 9.495-27.896 5.424-16.33 9.166-32.999-15.252-55.452zM434.13 115.804c0-5.47 1.755-9.425 7.206-9.425 5.452 0 12.988 1.917 12.988 7.388 0 5.472-4.296 14.355-9.75 14.355-5.451 0-10.444-6.846-10.444-12.318z" fill="#FFC6B2"/><path fill-rule="evenodd" clip-rule="evenodd" d="M438.435 105.595s-16.952-18.407-20.343-36.439c-3.392-18.029-9.154-47.286-9.154-47.286l-6.442 1.862s-3.053 39.983 0 46.106c3.05 6.124 17.961 46.891 22.501 57.597l13.438-21.84zM456.648 119.94s1.303-5.725 22.74-13.508c21.436-7.78 61.878-33.001 61.878-33.001l4.035 4.631s-21.974 25.467-34.758 29.933c-12.784 4.469-39.937 22.081-42.73 23.49-4.225 2.132-4.174 4.815-11.165-11.545z" fill="#FFC6B2"/><path fill-rule="evenodd" clip-rule="evenodd" d="M438.435 105.595s-17.223 5.6-17.223 31.895c0 0 .01 36.013 4.07 42.565 0 0 6.599 1.696 14.826 0 8.627-1.78 16.977-8.165 16.977-8.165l13.548-40.81-1.62-19.12-18.421-3.569s5.284 24.777-13.836 14.125c-3.715-2.07 5.467-16.127 5.467-16.127l-3.788-.794z" fill="#22343D"/><path fill-rule="evenodd" clip-rule="evenodd" d="M423.862 126.98l-8.487-17.74s1.217-10.762 16.797-14.618c0 0 1.576 5.424 3.303 7.497 1.726 2.071 6.754 4.276 6.754 4.276l-18.367 20.585zM455.947 134.111l26.987-5.55s4.692-9.754-6.433-21.357c0 0-21.051 1.276-23.775 1.503-2.682.224-.841 2.297-.841 2.297l4.062 23.107zM425.239 171.283s-25.526 47.35-29.743 55.811c0 0 75.306 34.707 105.875-7.07 0 0-17.389-36.927-44.271-50.985l-11.597-3.485-19.811 5.501" fill="#22343D"/><path fill-rule="evenodd" clip-rule="evenodd" d="M464.702 90.024s2.908-2.917 4.696-.898c1.789 2.02-6.485 4.937-6.485 4.937l1.789-4.039z" fill="#FFC6B2"/><path fill-rule="evenodd" clip-rule="evenodd" d="M517.888 50.236c.028.1-1.095.588-3.239 1.1-2.139.516-5.313.985-9.256 1.065-3.94.079-8.625-.273-13.753-.97-5.133-.683-10.708-1.686-16.573-2.328-5.856-.628-11.487-.742-16.474.066-4.988.794-9.306 2.433-12.606 4.348-3.3 1.93-5.597 4.07-7.007 5.69-1.417 1.622-2.056 2.657-2.2 2.57-.078-.04.348-1.207 1.633-3.025 1.276-1.812 3.529-4.204 6.889-6.366 3.358-2.149 7.82-3.995 13.006-4.92 5.192-.937 10.999-.864 16.957-.224 5.963.653 11.545 1.713 16.618 2.481 5.071.784 9.655 1.264 13.514 1.353 7.737.217 12.42-1.16 12.491-.84z" fill="#775298"/><path fill-rule="evenodd" clip-rule="evenodd" d="M449.895 88.368c-.008.115-.837.195-2.101-.226-.313-.11-.682-.255-1.026-.57a1.677 1.677 0 01-.423-.62 1.403 1.403 0 01.009-1.06c.041-.061.038-.207.118-.21l.246-.008c.158-.022.344.03.526.064.334.064.441.055.679.071.417.01.849-.034 1.281-.13 1.765-.373 2.947-1.662 3.476-2.722.556-1.067.605-1.87.753-1.86.104-.013.311.84-.148 2.127a5.386 5.386 0 01-1.296 1.99 5.412 5.412 0 01-2.58 1.379 5.65 5.65 0 01-1.523.132 5.83 5.83 0 01-.654-.076c-.091-.015-.081-.036-.098-.025-.011.011-.016.029-.015.055.037.122.103.24.197.344.189.214.463.374.73.507 1.094.538 1.869.698 1.849.838z" fill="#FF7B5B"/><path fill-rule="evenodd" clip-rule="evenodd" d="M443.841 88.684l9.941 3.93s-8.736 6.044-9.941-3.93z" fill="#fff"/><path fill-rule="evenodd" clip-rule="evenodd" d="M458.028 90.575c-.353.673-1.448.79-2.446.263-.999-.526-1.521-1.5-1.17-2.171.353-.673 1.449-.792 2.448-.264.998.527 1.521 1.498 1.168 2.172zM446.933 84.672c-.302.698-1.384.9-2.419.45-1.035-.45-1.631-1.38-1.33-2.077.3-.698 1.384-.9 2.419-.45 1.035.45 1.631 1.38 1.33 2.077z" fill="#FFB2A0"/><path fill-rule="evenodd" clip-rule="evenodd" d="M443.25 99.623s3.485 2.928 7.121 1.985c0 0-1.254 1.886-6.079 1.194 0 0 .4-2.078-1.042-3.18z" fill="#FFA192"/><path fill-rule="evenodd" clip-rule="evenodd" d="M457.074 84.31a.79.79 0 01-.788.79.79.79 0 010-1.58.79.79 0 01.788.79zM450.628 81.98a.79.79 0 01-.787.791.789.789 0 01-.787-.79c0-.436.352-.79.787-.79a.79.79 0 01.787.79z" fill="#22343D"/><path fill-rule="evenodd" clip-rule="evenodd" d="M459.605 82.205c-.244.104-.713-.467-1.425-.93-.697-.482-1.403-.698-1.402-.963-.023-.253.963-.459 1.921.186.959.64 1.149 1.63.906 1.707zM448.245 78.37c-.016-.246.83-.557 1.963-.527 1.153.025 2.004.586 1.886.82-.109.238-.911.136-1.923.117-1.017-.03-1.91-.14-1.926-.41z" fill="#775298"/><path fill-rule="evenodd" clip-rule="evenodd" d="M451.795 321.662s4.135 14.727 8.405 13.521c4.27-1.204 1.059-21.758 1.059-21.758l-4.26-6.756s4.002 34.405-5.204 14.993zM503.941 240.014s3.007-3.292 6.652-3.84c3.647-.549 16.678-2.104 18.591-.366 1.915 1.737-10.562 7.562-10.562 7.562s4.348-2.779 2.543-3.812c-3.19-1.83-17.224.456-17.224.456zM498.771 243.957l4.08 8.311 2.226-1.24-5.441-8.187-.865 1.116zM453.15 300.149l-10.015 9.056 2.968 2.481 8.407-9.18-1.36-2.357zM243.778 209.993c-2.848-7.091-3.942-14.986-8.192-21.332-6.116-9.131-17.862-13.662-22.824-23.473-2.108-4.167-2.769-8.933-2.791-13.606-.041-9.244 2.717-19.071 9.834-24.946 8.177-6.75 20.446-6.656 30.024-2.121 9.574 4.535 16.89 12.766 23.11 21.365 6.222 8.596 11.668 17.823 18.912 25.571 5.371 5.745 11.742 10.699 15.788 17.448 11.092 18.504-.32 41.915-19.902 48.593-17.205 5.867-38.006-12.673-43.959-27.499z" fill="#22343D"/><path fill-rule="evenodd" clip-rule="evenodd" d="M219.266 340.493c1.703 1.405-.154.432 2.323 2.051-.553 6.209-6.277 10.121-6.277 10.121s-.242 9.886-2.081 9.683c-1.843-.2-.663-9.519-.663-9.519s-3.769 9.737-5.363 9.117c-1.593-.617 4.176-11.791 4.176-11.791s-8.086 11.167-9.197 9.407c-1.109-1.76 6.006-12.535 6.006-12.535s-8.786 9.241-9.779 7.745c-.991-1.492 10.485-14.345 10.485-14.345-5.312-.058-4.935-3.686-4.935-3.686l12.937.77s1.585 2.333 2.368 2.982zM342.86 154.045c2.214.39.496-.346 3.369.492 4.718-4.301 4.091-11.058 4.091-11.058s7.913-6.366 6.601-7.61c-1.32-1.247-8.184 5.461-8.184 5.461s5.584-8.902 4.082-9.703c-1.499-.8-7.009 10.494-7.009 10.494s4.054-13.018 1.922-12.745c-2.127.274-6.471 12.318-6.471 12.318s2.042-12.33.205-12.136c-1.839.194-4.814 16.348-4.814 16.348-4.332-3.537-7.365-1.273-7.365-1.273l9.483 9.329s3.073-.094 4.09.083zM288.699 208.035c4.002-.626 16.208 7.31 13.102 23.426-.26 1.353-2.021 4.331-2.46 5.563-.554 1.56 3.764 7.271 3.764 7.271l-11.146 3.573c-.476-3.378.324-8.315-3.278-9.782-1.347-.549-2.789-.897-4.06-1.593-3.432-1.881-5.264-5.995-6.674-9.362-1.053-2.516-1.854-5.223-1.824-7.953.073-6.876 6.143-10.134 12.576-11.143z" fill="#FFC6B2"/><path fill-rule="evenodd" clip-rule="evenodd" d="M311.019 252.173c0-5.801-1.833-8.015-7.901-8.015s-14.079 2.214-14.079 8.015c0 5.802 4.285 13.062 10.356 13.062 6.067 0 11.624-7.26 11.624-13.062z" fill="#FFC6B2"/><path fill-rule="evenodd" clip-rule="evenodd" d="M306.227 241.346s18.868-19.518 22.643-38.639c3.775-19.119 10.188-50.143 10.188-50.143l7.171 1.973s3.398 42.4 0 48.892c-3.395 6.495-22.644 51.589-22.266 63.131l-17.736-25.214zM272.593 250.797s-6.415 1.082-16.228 23.45c-9.812 22.366-40.003 64.005-40.003 64.005l4.907 4.534s29.436-22.004 35.096-35.351c5.66-13.347 12.83-29.941 16.228-29.222 3.396.724 17.737-19.12 0-27.416z" fill="#FFC6B2"/><path fill-rule="evenodd" clip-rule="evenodd" d="M323.108 269.542l8.786-24.329s-1.356-11.411-18.696-15.502l-9.823 14.2 19.733 25.631zM275.522 248.93s-10.365.876-18.766 19.39c0 0 9.239 12.798 15.999 13.23 0 0 25.104-21.53 2.767-32.62z" fill="#FF7B5B"/><path fill-rule="evenodd" clip-rule="evenodd" d="M304.002 468.488s-14.963 30.655-16.712 24.979c-1.746-5.678-1.169-19.312-.232-21.258.941-1.947 7.058-10.546 7.058-10.546l9.886 6.825z" fill="#FFC6B2"/><path fill-rule="evenodd" clip-rule="evenodd" d="M305.145 322.747l13.683-5.249s40.607 71.985 40.439 91.957c-.169 19.97-55.772 59.958-55.772 59.958l-9.379-7.75s26.355-38.878 35.532-48.967c4.589-5.046-28.264-29.773-33.24-53.564-4.976-23.792 8.737-36.385 8.737-36.385z" fill="#654287"/><path fill-rule="evenodd" clip-rule="evenodd" d="M222.876 452.429s-27.988 20.698-26.824 14.889c1.168-5.814 8.214-17.68 9.981-19 1.769-1.318 11.325-6.284 11.325-6.284l5.518 10.395z" fill="#FFC6B2"/><path fill-rule="evenodd" clip-rule="evenodd" d="M267.918 348.237l40.482-23.539s1.607 81.769-8.112 99.449c-9.717 17.68-78.306 28.881-78.306 28.881l-4.624-10.993s42.316-25.296 55.308-30.247c12.993-4.953-4.748-63.551-4.748-63.551z" fill="#775298"/><path fill-rule="evenodd" clip-rule="evenodd" d="M292.027 308.596s-29.807 10.589-24.109 39.642c5.698 29.051 15.195 34.498 15.195 34.498l17.094-28.143 17.163-36.855-17.163-2.185-8.18-6.957z" fill="#775298"/><path fill-rule="evenodd" clip-rule="evenodd" d="M306.227 241.346s21.946 12.34 21.946 40.224c0 0-2.788 31.789-7.307 38.734 0 0-7.344 1.8-16.502 0-9.602-1.886-18.894-8.657-18.894-8.657l-7.5-38.919-5.834-22.725 3.163-1.046 16.505-1.82s-2.371 24.738 16.058 12.454c3.882-2.588-4.832-15.487-4.832-15.487l3.197-2.758z" fill="#FF7B5B"/><path fill-rule="evenodd" clip-rule="evenodd" d="M319.66 135.978l46.012 26.931 25.883-49.052-43.137-24.045-28.758 46.166zM383.671 370.786l32.909-20.439-27.188-47.615-30.083 19.571 24.362 48.483z" fill="#fff"/><path fill-rule="evenodd" clip-rule="evenodd" d="M221.641 167.89c.086-.077 1.102.848 2.709 2.735 1.6 1.89 3.782 4.764 5.973 8.642 2.199 3.862 4.374 8.762 5.928 14.449 1.608 5.646 2.686 11.992 5.158 18.104 1.284 3.02 2.839 5.831 4.69 8.316a45.041 45.041 0 006.07 6.526c4.357 3.679 8.922 6.21 12.989 7.672 4.064 1.482 7.545 2.147 9.965 2.386 2.417.268 3.784.308 3.785.467.007.1-1.356.308-3.838.26-2.481-.019-6.093-.494-10.346-1.862-4.257-1.349-9.066-3.846-13.664-7.605a44.957 44.957 0 01-6.423-6.741c-1.958-2.586-3.612-5.543-4.955-8.709-2.575-6.389-3.593-12.791-5.091-18.361a67.252 67.252 0 00-5.428-14.27c-1.998-3.881-3.981-6.823-5.386-8.828-1.414-2.002-2.242-3.087-2.136-3.181zM278.172 136.383c.338-.052.667 4.492 3.201 11.214a50.569 50.569 0 005.852 11.062c1.351 1.933 2.906 3.838 4.666 5.737 1.748 1.906 3.652 3.842 5.452 6.014 3.608 4.384 6.091 9.122 8.428 13.304 2.321 4.223 4.17 8.24 5.109 11.833.981 3.582 1.038 6.666.727 8.711-.325 2.055-.834 3.096-.918 3.068-.162-.043.102-1.142.194-3.133.08-1.988-.172-4.885-1.268-8.271-1.06-3.4-2.965-7.232-5.343-11.365-2.415-4.131-4.919-8.774-8.366-12.952-1.73-2.09-3.607-4.019-5.366-5.973-1.768-1.945-3.376-3.97-4.733-5.996-2.722-4.057-4.539-8.1-5.677-11.595a41.96 41.96 0 01-1.894-8.474c-.233-2.036-.17-3.175-.064-3.184z" fill="#22343D"/><path fill-rule="evenodd" clip-rule="evenodd" d="M292.278 225.553c-.018-.131.732-.251 1.44-1.085.163-.192.327-.473.324-.636a1.013 1.013 0 00-.337-.657.952.952 0 00-.782-.259c-.331.025-.735.189-1.262.268-1.154.154-2.054-.5-2.646-1.03a9.436 9.436 0 01-1.42-1.629c-.69-1.021-.904-1.758-.798-1.813.122-.065.538.545 1.316 1.401.388.425.878.913 1.457 1.383.57.457 1.268.872 1.965.762.37-.048.8-.221 1.324-.256.534-.053 1.128.193 1.453.561.347.376.541.819.5 1.344-.103.537-.387.787-.622 1.022-1.014.891-1.945.745-1.912.624z" fill="#FF7B5B"/><path fill-rule="evenodd" clip-rule="evenodd" d="M297.716 226.321l-8.837 3.224s7.498 6.581 8.837-3.224z" fill="#fff"/><path fill-rule="evenodd" clip-rule="evenodd" d="M287.997 225.772c.353.673-.17 1.646-1.168 2.172-.998.527-2.093.41-2.446-.263-.353-.672.17-1.645 1.168-2.172.998-.528 2.093-.41 2.446.263zM298.473 220.382c.289.703-.322 1.621-1.363 2.053-1.044.434-2.123.214-2.412-.489-.29-.703.321-1.622 1.364-2.053 1.042-.432 2.122-.214 2.411.489z" fill="#FFB2A0"/><path fill-rule="evenodd" clip-rule="evenodd" d="M289.14 238.321s2.957.604 6.725-.34c0 0-1.857 1.811-4.893 2.232 0 0-.68-1.262-1.832-1.892z" fill="#FFA192"/><path fill-rule="evenodd" clip-rule="evenodd" d="M292.161 218.391a.792.792 0 01.091 1.113.786.786 0 01-1.11.092.793.793 0 01-.091-1.114.787.787 0 011.11-.091zM286.222 221.819a.791.791 0 01.091 1.113.784.784 0 01-1.109.092.792.792 0 01-.091-1.114.785.785 0 011.109-.091zM292.196 215.093c-.079.253-.816.244-1.627.49-.818.221-1.438.622-1.639.449-.208-.145.273-1.033 1.382-1.349 1.107-.321 1.983.175 1.884.41zM281.937 221.309c-.198-.147.113-.994.868-1.842.763-.867 1.741-1.155 1.843-.914.11.235-.486.785-1.156 1.546-.679.759-1.34 1.372-1.555 1.21z" fill="#22343D"/><path fill-rule="evenodd" clip-rule="evenodd" d="M278.604 227.893s-2.834-2.389-4.195-.228c-1.36 2.161 6.122 3.299 6.122 3.299l-1.927-3.071z" fill="#FFC6B2"/><path fill-rule="evenodd" clip-rule="evenodd" d="M210.452 445.702s-4.064 1.773-5.123 2.837c-1.061 1.063-10.778 17.902-9.541 20.029 1.238 2.128 10.982-5.093 10.982-5.093s-8.154 1.549 3.682-17.773zM289.745 467.97s-2.886 3.13-3.332 4.567c-.445 1.435-1.242 20.877.84 22.183 2.08 1.307 7.768-9.421 7.768-9.421s-6.8 5.344-5.276-17.284" fill="#775298"/></svg>