<svg width="182" height="33" viewBox="0 0 182 33" fill="none" xmlns="http://www.w3.org/2000/svg"><path fill-rule="evenodd" clip-rule="evenodd" d="M96.5755 9.8752C95.6863 9.3184 94.6232 9.04 93.3861 9.04C92.0523 9.04 90.8587 9.3712 89.8052 10.0336C88.7518 10.696 87.9206 11.6464 87.3117 12.8848C86.7028 14.1232 86.3984 15.5872 86.3984 17.2768C86.3984 18.9472 86.7028 20.4064 87.3117 21.6544C87.9206 22.9024 88.7518 23.8576 89.8052 24.52C90.8587 25.1824 92.0523 25.5136 93.3861 25.5136C94.6232 25.5136 95.6863 25.2352 96.5755 24.6784C97.4646 24.1216 98.1122 23.3632 98.5181 22.4032V25.312H103.476V4H98.5181V12.1504C98.1122 11.1904 97.4646 10.432 96.5755 9.8752ZM43.1094 25.312V18.1696H46.1829C47.7872 18.1696 49.15 17.8864 50.2711 17.32C51.3922 16.7536 52.2379 15.976 52.8081 14.9872C53.3784 13.9984 53.6635 12.8704 53.6635 11.6032C53.6635 9.56799 53.0256 7.95041 51.7498 6.7504C50.4741 5.55039 48.6184 4.9504 46.1829 4.9504H38.1514V25.312H43.1094ZM48.6184 11.6032C48.6184 13.3504 47.6229 14.224 45.632 14.224H43.1094V8.9248H45.632C47.6229 8.9248 48.6184 9.81759 48.6184 11.6032ZM61.0571 12.2656C61.6757 11.2864 62.473 10.5088 63.4492 9.9328C64.4253 9.3568 65.4836 9.0688 66.6241 9.0688V14.3392H65.2033C63.8889 14.3392 62.8693 14.6176 62.1444 15.1744C61.4195 15.7312 61.0571 16.672 61.0571 17.9968V25.312H56.099V9.2416H61.0571V12.2656ZM80.585 10.0336C79.3189 9.3712 77.8836 9.04 76.2793 9.04C74.6749 9.04 73.2348 9.3712 71.9591 10.0336C70.6833 10.696 69.683 11.6512 68.9581 12.8992C68.2333 14.1472 67.8708 15.6064 67.8708 17.2768C67.8708 18.9472 68.2333 20.4064 68.9581 21.6544C69.683 22.9024 70.6833 23.8576 71.9591 24.52C73.2348 25.1824 74.6749 25.5136 76.2793 25.5136C77.8836 25.5136 79.3189 25.1824 80.585 24.52C81.8511 23.8576 82.8465 22.9024 83.5714 21.6544C84.2963 20.4064 84.6587 18.9472 84.6587 17.2768C84.6587 15.6064 84.2963 14.1472 83.5714 12.8992C82.8465 11.6512 81.8511 10.696 80.585 10.0336ZM76.2793 13.3024C75.3321 13.3024 74.5348 13.6432 73.8872 14.3248C73.2397 15.0064 72.9159 15.9904 72.9159 17.2768C72.9159 18.5632 73.2397 19.5424 73.8872 20.2144C74.5348 20.8864 75.3321 21.2224 76.2793 21.2224C77.2264 21.2224 78.0189 20.8864 78.6568 20.2144C79.2947 19.5424 79.6136 18.5632 79.6136 17.2768C79.6136 15.9904 79.2947 15.0064 78.6568 14.3248C78.0189 13.6432 77.2264 13.3024 76.2793 13.3024ZM94.9808 13.36C93.9176 13.36 93.0623 13.7056 92.4147 14.3968C91.7672 15.088 91.4434 16.048 91.4434 17.2768C91.4434 18.5056 91.7672 19.4656 92.4147 20.1568C93.0623 20.848 93.9176 21.1936 94.9808 21.1936C96.0246 21.1936 96.8799 20.8384 97.5468 20.128C98.2137 19.4176 98.5471 18.4672 98.5471 17.2768C98.5471 16.0672 98.2137 15.112 97.5468 14.4112C96.8799 13.7104 96.0246 13.36 94.9808 13.36ZM118.002 25.312H122.99V9.2416H118.002V17.7664C118.002 18.9376 117.713 19.84 117.133 20.4736C116.553 21.1072 115.76 21.424 114.755 21.424C113.789 21.424 113.02 21.1216 112.45 20.5168C111.88 19.912 111.595 19.0624 111.595 17.968V9.2416H106.666V18.5728C106.666 20.7232 107.212 22.4128 108.304 23.6416C109.396 24.8704 110.87 25.4848 112.725 25.4848C113.943 25.4848 115.011 25.2064 115.929 24.6496C116.848 24.0928 117.539 23.344 118.002 22.4032V25.312ZM133.718 9.04C135.805 9.04 137.554 9.61119 138.966 10.7536C140.377 11.896 141.266 13.4656 141.633 15.4624H136.385C136.23 14.7712 135.911 14.2336 135.428 13.8496C134.945 13.4656 134.336 13.2736 133.602 13.2736C132.732 13.2736 132.017 13.6144 131.456 14.296C130.895 14.9776 130.615 15.9712 130.615 17.2768C130.615 18.5824 130.895 19.576 131.456 20.2576C132.017 20.9392 132.732 21.28 133.602 21.28C134.336 21.28 134.945 21.088 135.428 20.704C135.911 20.32 136.23 19.7824 136.385 19.0912H141.633C141.266 21.088 140.377 22.6576 138.966 23.8C137.554 24.9424 135.805 25.5136 133.718 25.5136C132.133 25.5136 130.726 25.1824 129.499 24.52C128.271 23.8576 127.31 22.9024 126.614 21.6544C125.918 20.4064 125.57 18.9472 125.57 17.2768C125.57 15.5872 125.913 14.1232 126.599 12.8848C127.286 11.6464 128.247 10.696 129.484 10.0336C130.721 9.3712 132.133 9.04 133.718 9.04ZM153.376 25.312V21.0784H151.81C151.192 21.0784 150.752 20.9536 150.491 20.704C150.23 20.4544 150.099 20.0128 150.099 19.3792V13.3888H153.347V9.2416H150.099V5.296H145.141V9.2416H142.967V13.3888H145.141V19.2928C145.141 21.4432 145.668 22.984 146.722 23.9152C147.775 24.8464 149.249 25.312 151.143 25.312H153.376ZM161.117 4V25.312H156.159V4H161.117ZM172.164 19.0912L168.279 9.2416H162.741L169.526 24.7072L165.728 32.9728H171.179L181.269 9.2416H175.789L172.164 19.0912Z" fill="#173A56"/><mask id="mask0" mask-type="alpha" maskUnits="userSpaceOnUse" x="0" y="0" width="30" height="30"><rect width="30" height="30" rx="8" fill="#C4C4C4"/></mask><g mask="url(#mask0)"><rect x="-6.5625" y="14.7949" width="33.75" height="40.3125" transform="rotate(-26 -6.5625 14.7949)" fill="#157FFB"/><rect x="3.75" y="3.13647" width="20.625" height="40.3125" transform="rotate(-56.5 3.75 3.13647)" fill="#35B74B"/><rect x="9.97488" y="-15.9375" width="20.625" height="40.3125" transform="rotate(40 9.97488 -15.9375)" fill="#FC3B36"/><rect x="-9.375" y="0.0991211" width="11.25" height="38.4375" transform="rotate(-15 -9.375 0.0991211)" fill="#FECC2F"/></g></svg>